<svg class="logo" xmlns="http://www.w3.org/2000/svg" version="1.1" xmlns:xlink="http://www.w3.org/1999/xlink" xmlns:svgjs="http://svgjs.dev/svgjs" width="2000" height="1252" viewBox="0 0 2000 1252"><g transform="matrix(1,0,0,1,-1.2121212121212466,-2.01935483870966)"><svg viewBox="0 0 396 248" data-background-color="#ffffff" preserveAspectRatio="xMidYMid meet" height="1252" width="2000" xmlns="http://www.w3.org/2000/svg" xmlns:xlink="http://www.w3.org/1999/xlink"><g id="tight-bounds" transform="matrix(1,0,0,1,0.2400000000000091,0.4000000000000057)"><svg viewBox="0 0 395.52 247.2" height="247.2" width="395.52"><g><svg></svg></g><g><svg viewBox="0 0 395.52 247.2" height="247.2" width="395.52"><mask id="08f7bd41-26f1-4926-9afa-623842dc5679"><rect width="640" height="400" fill="white"></rect><g transform="matrix(1,0,0,1,39.55199999999999,92.73191725143023)"><svg viewBox="0 0 316.416 61.73616549713953" height="61.73616549713953" width="316.416"><g><svg viewBox="0 0 316.416 61.73616549713953" height="61.73616549713953" width="316.416"><g><svg viewBox="0 0 316.416 61.73616549713953" height="61.73616549713953" width="316.416"><g><svg viewBox="0 0 316.416 61.73616549713953" height="61.73616549713953" width="316.416"><g id="SvgjsG5391"><svg viewBox="0 0 316.416 61.73616549713953" height="61.73616549713953" width="316.416" id="SvgjsSvg5390"><g><svg viewBox="0 0 316.416 61.73616549713953" height="61.73616549713953" width="316.416"><g transform="matrix(1,0,0,1,0,0)"><svg width="316.416" viewBox="-1.3399999999999999 -40.74 279.72999999999996 55.38000000000001" height="61.73616549713953" data-palette-color="#354145"><path d="M17.87 0.61L17.87 0.61Q13.43 0.61 9.99-1.48 6.54-3.56 4.6-7.48 2.66-11.4 2.66-16.89L2.66-16.89Q2.66-22.34 4.66-26.27 6.67-30.2 10.16-32.34 13.65-34.47 18.14-34.47L18.14-34.47Q21.66-34.47 24-33.15 26.34-31.84 27.81-30.3L27.81-30.3 25.61-27.76Q24.34-29.13 22.56-30.02 20.78-30.91 18.24-30.91L18.24-30.91Q14.77-30.91 12.21-29.21 9.64-27.51 8.24-24.4 6.84-21.29 6.84-16.99L6.84-16.99Q6.84-10.5 9.79-6.71 12.74-2.93 18.24-2.93L18.24-2.93Q20.09-2.93 21.78-3.45 23.46-3.98 24.51-4.98L24.51-4.98 24.51-14.06 17.21-14.06 17.21-17.41 28.22-17.41 28.22-3.3Q26.61-1.59 23.93-0.49 21.24 0.61 17.87 0.61ZM39.91 0L35.96 0 35.96-24.98 39.26-24.98 39.62-20.46 39.72-20.46Q41.04-22.8 42.87-24.21 44.7-25.61 46.82-25.61L46.82-25.61Q48.44-25.61 49.46-25.1L49.46-25.1 48.58-21.73Q48.04-21.9 47.57-21.97 47.09-22.05 46.31-22.05L46.31-22.05Q44.72-22.05 42.97-20.74 41.21-19.43 39.91-16.16L39.91-16.16 39.91 0ZM59.39 0.61L59.39 0.61Q56.27 0.61 54.17-1.21 52.07-3.03 52.07-6.42L52.07-6.42Q52.07-10.52 55.79-12.72 59.52-14.92 67.55-15.82L67.55-15.82Q67.55-17.48 67.1-18.97 66.65-20.46 65.51-21.41 64.37-22.36 62.28-22.36L62.28-22.36Q60.05-22.36 58.11-21.51 56.17-20.65 54.71-19.73L54.71-19.73 53.17-22.36Q54.83-23.51 57.36-24.56 59.88-25.61 62.91-25.61L62.91-25.61Q67.48-25.61 69.49-22.8 71.5-20 71.5-15.41L71.5-15.41 71.5 0 68.21 0 67.89-3.03 67.74-3.03Q65.94-1.54 63.83-0.46 61.71 0.61 59.39 0.61ZM60.47-2.56L60.47-2.56Q62.35-2.56 64-3.44 65.64-4.32 67.55-5.96L67.55-5.96 67.55-13.18Q63.23-12.65 60.69-11.77 58.15-10.89 57.05-9.64 55.95-8.4 55.95-6.74L55.95-6.74Q55.95-4.52 57.27-3.54 58.59-2.56 60.47-2.56ZM83.44 0L79.48 0 79.48-24.98 82.78-24.98 83.15-21.39 83.24-21.39Q85.05-23.17 87.08-24.39 89.1-25.61 91.69-25.61L91.69-25.61Q95.6-25.61 97.43-23.13 99.26-20.65 99.26-15.87L99.26-15.87 99.26 0 95.35 0 95.35-15.36Q95.35-18.92 94.21-20.56 93.06-22.19 90.45-22.19L90.45-22.19Q88.52-22.19 86.96-21.17 85.39-20.14 83.44-18.19L83.44-18.19 83.44 0ZM111.46 0L107.51 0 107.51-24.98 110.81-24.98 111.17-21.39 111.27-21.39Q113.08-23.17 115.1-24.39 117.13-25.61 119.72-25.61L119.72-25.61Q123.62-25.61 125.45-23.13 127.28-20.65 127.28-15.87L127.28-15.87 127.28 0 123.38 0 123.38-15.36Q123.38-18.92 122.23-20.56 121.08-22.19 118.47-22.19L118.47-22.19Q116.54-22.19 114.98-21.17 113.42-20.14 111.46-18.19L111.46-18.19 111.46 0ZM142.03 0.61L142.03 0.61Q139.25 0.61 136.85-0.33 134.46-1.27 132.75-2.93L132.75-2.93 134.61-5.25Q136.19-3.93 137.99-3.2 139.78-2.47 142.18-2.47L142.18-2.47Q144.69-2.47 145.96-3.67 147.23-4.88 147.23-6.54L147.23-6.54Q147.23-7.86 146.4-8.73 145.57-9.59 144.26-10.21 142.96-10.82 141.52-11.33L141.52-11.33Q139.66-12.01 137.98-12.92 136.29-13.82 135.22-15.19 134.14-16.55 134.14-18.6L134.14-18.6Q134.14-21.53 136.36-23.57 138.59-25.61 142.64-25.61L142.64-25.61Q144.96-25.61 146.92-24.82 148.89-24.02 150.33-22.83L150.33-22.83 148.52-20.51Q147.2-21.46 145.8-21.98 144.4-22.51 142.69-22.51L142.69-22.51Q140.22-22.51 139.09-21.37 137.95-20.24 137.95-18.8L137.95-18.8Q137.95-17.02 139.47-16.11 140.98-15.21 143.25-14.36L143.25-14.36Q145.23-13.67 147.01-12.78 148.79-11.89 149.91-10.47 151.04-9.06 151.04-6.74L151.04-6.74Q151.04-3.71 148.72-1.55 146.4 0.61 142.03 0.61ZM160.92 0L157.02 0 157.02-36.74 160.92-36.74 160.92-11.57 161.07-11.57 171.96-24.98 176.38-24.98 168.03-14.94 177.52 0 173.2 0 165.78-12.21 160.92-6.64 160.92 0ZM188.02 0.61L188.02 0.61Q184.89 0.61 182.8-1.21 180.7-3.03 180.7-6.42L180.7-6.42Q180.7-10.52 184.42-12.72 188.14-14.92 196.17-15.82L196.17-15.82Q196.17-17.48 195.72-18.97 195.27-20.46 194.14-21.41 193-22.36 190.9-22.36L190.9-22.36Q188.68-22.36 186.74-21.51 184.8-20.65 183.33-19.73L183.33-19.73 181.79-22.36Q183.45-23.51 185.98-24.56 188.51-25.61 191.54-25.61L191.54-25.61Q196.1-25.61 198.11-22.8 200.13-20 200.13-15.41L200.13-15.41 200.13 0 196.83 0 196.52-3.03 196.37-3.03Q194.56-1.54 192.45-0.46 190.34 0.61 188.02 0.61ZM189.09-2.56L189.09-2.56Q190.97-2.56 192.62-3.44 194.27-4.32 196.17-5.96L196.17-5.96 196.17-13.18Q191.85-12.65 189.31-11.77 186.77-10.89 185.68-9.64 184.58-8.4 184.58-6.74L184.58-6.74Q184.58-4.52 185.9-3.54 187.21-2.56 189.09-2.56ZM212.06 10.64L208.11 10.64 208.11-24.98 211.41-24.98 211.77-22.09 211.87-22.09Q213.58-23.49 215.67-24.55 217.75-25.61 219.9-25.61L219.9-25.61Q224.78-25.61 227.32-22.14 229.86-18.68 229.86-12.87L229.86-12.87Q229.86-8.62 228.35-5.6 226.84-2.59 224.36-0.99 221.88 0.61 218.97 0.61L218.97 0.61Q217.27 0.61 215.51-0.15 213.75-0.9 211.97-2.29L211.97-2.29 212.06 2.1 212.06 10.64ZM218.36-2.71L218.36-2.71Q221.56-2.71 223.67-5.43 225.79-8.15 225.79-12.82L225.79-12.82Q225.79-17.04 224.2-19.68 222.61-22.31 218.97-22.31L218.97-22.31Q217.34-22.31 215.65-21.4 213.97-20.48 212.06-18.75L212.06-18.75 212.06-5.4Q213.85-3.93 215.47-3.32 217.09-2.71 218.36-2.71ZM246.63 0.61L246.63 0.61Q243.34 0.61 240.64-0.95 237.94-2.51 236.34-5.44 234.74-8.37 234.74-12.45L234.74-12.45Q234.74-16.53 236.34-19.48 237.94-22.44 240.5-24.02 243.07-25.61 245.92-25.61L245.92-25.61Q250.64-25.61 253.22-22.46 255.81-19.31 255.81-13.89L255.81-13.89Q255.81-12.52 255.67-11.57L255.67-11.57 238.65-11.57Q238.84-7.5 241.14-5 243.43-2.51 247.1-2.51L247.1-2.51Q248.98-2.51 250.54-3.02 252.1-3.52 253.44-4.42L253.44-4.42 254.84-1.95Q253.2-0.83 251.22-0.11 249.25 0.61 246.63 0.61ZM238.6-14.43L238.6-14.43 252.32-14.43Q252.32-18.36 250.66-20.41 249-22.46 245.97-22.46L245.97-22.46Q243.26-22.46 241.13-20.36 238.99-18.26 238.6-14.43ZM269.75 0.61L269.75 0.61Q265.82 0.61 264.28-1.66 262.74-3.93 262.74-7.62L262.74-7.62 262.74-21.73 259.03-21.73 259.03-24.78 262.96-24.98 263.43-33.08 266.72-33.08 266.72-24.98 273.58-24.98 273.58-21.73 266.72-21.73 266.72-7.52Q266.72-5.2 267.58-3.91 268.43-2.61 270.63-2.61L270.63-2.61Q271.29-2.61 272.02-2.75 272.75-2.88 273.51-3.22L273.51-3.22 274.39-0.44Q273.39 0 272.19 0.31 271 0.61 269.75 0.61Z" opacity="1" transform="matrix(1,0,0,1,0,0)" fill="black" class="wordmark-text-0" id="SvgjsPath5389" stroke-width="7" stroke="black" stroke-linejoin="round"></path></svg></g></svg></g></svg></g></svg></g><g></g></svg></g></svg></g></svg></g></mask><g transform="matrix(1,0,0,1,39.55199999999999,92.73191725143023)"><svg viewBox="0 0 316.416 61.73616549713953" height="61.73616549713953" width="316.416"><g><svg viewBox="0 0 316.416 61.73616549713953" height="61.73616549713953" width="316.416"><g><svg viewBox="0 0 316.416 61.73616549713953" height="61.73616549713953" width="316.416"><g><svg viewBox="0 0 316.416 61.73616549713953" height="61.73616549713953" width="316.416"><g id="textblocktransform"><svg viewBox="0 0 316.416 61.73616549713953" height="61.73616549713953" width="316.416" id="textblock"><g><svg viewBox="0 0 316.416 61.73616549713953" height="61.73616549713953" width="316.416"><g transform="matrix(1,0,0,1,0,0)"><svg width="316.416" viewBox="-1.3399999999999999 -40.74 279.72999999999996 55.38000000000001" height="61.73616549713953" data-palette-color="#354145"><path d="M17.87 0.61L17.87 0.61Q13.43 0.61 9.99-1.48 6.54-3.56 4.6-7.48 2.66-11.4 2.66-16.89L2.66-16.89Q2.66-22.34 4.66-26.27 6.67-30.2 10.16-32.34 13.65-34.47 18.14-34.47L18.14-34.47Q21.66-34.47 24-33.15 26.34-31.84 27.81-30.3L27.81-30.3 25.61-27.76Q24.34-29.13 22.56-30.02 20.78-30.91 18.24-30.91L18.24-30.91Q14.77-30.91 12.21-29.21 9.64-27.51 8.24-24.4 6.84-21.29 6.84-16.99L6.84-16.99Q6.84-10.5 9.79-6.71 12.74-2.93 18.24-2.93L18.24-2.93Q20.09-2.93 21.78-3.45 23.46-3.98 24.51-4.98L24.51-4.98 24.51-14.06 17.21-14.06 17.21-17.41 28.22-17.41 28.22-3.3Q26.61-1.59 23.93-0.49 21.24 0.61 17.87 0.61ZM39.91 0L35.96 0 35.96-24.98 39.26-24.98 39.62-20.46 39.72-20.46Q41.04-22.8 42.87-24.21 44.7-25.61 46.82-25.61L46.82-25.61Q48.44-25.61 49.46-25.1L49.46-25.1 48.58-21.73Q48.04-21.9 47.57-21.97 47.09-22.05 46.31-22.05L46.31-22.05Q44.72-22.05 42.97-20.74 41.21-19.43 39.91-16.16L39.91-16.16 39.91 0ZM59.39 0.61L59.39 0.61Q56.27 0.61 54.17-1.21 52.07-3.03 52.07-6.42L52.07-6.42Q52.07-10.52 55.79-12.72 59.52-14.92 67.55-15.82L67.55-15.82Q67.55-17.48 67.1-18.97 66.65-20.46 65.51-21.41 64.37-22.36 62.28-22.36L62.28-22.36Q60.05-22.36 58.11-21.51 56.17-20.65 54.71-19.73L54.71-19.73 53.17-22.36Q54.83-23.51 57.36-24.56 59.88-25.61 62.91-25.61L62.91-25.61Q67.48-25.61 69.49-22.8 71.5-20 71.5-15.41L71.5-15.41 71.5 0 68.21 0 67.89-3.03 67.74-3.03Q65.94-1.54 63.83-0.46 61.71 0.61 59.39 0.61ZM60.47-2.56L60.47-2.56Q62.35-2.56 64-3.44 65.64-4.32 67.55-5.96L67.55-5.96 67.55-13.18Q63.23-12.65 60.69-11.77 58.15-10.89 57.05-9.64 55.95-8.4 55.95-6.74L55.95-6.74Q55.95-4.52 57.27-3.54 58.59-2.56 60.47-2.56ZM83.44 0L79.48 0 79.48-24.98 82.78-24.98 83.15-21.39 83.24-21.39Q85.05-23.17 87.08-24.39 89.1-25.61 91.69-25.61L91.69-25.61Q95.6-25.61 97.43-23.13 99.26-20.65 99.26-15.87L99.26-15.87 99.26 0 95.35 0 95.35-15.36Q95.35-18.92 94.21-20.56 93.06-22.19 90.45-22.19L90.45-22.19Q88.52-22.19 86.96-21.17 85.39-20.14 83.44-18.19L83.44-18.19 83.44 0ZM111.46 0L107.51 0 107.51-24.98 110.81-24.98 111.17-21.39 111.27-21.39Q113.08-23.17 115.1-24.39 117.13-25.61 119.72-25.61L119.72-25.61Q123.62-25.61 125.45-23.13 127.28-20.65 127.28-15.87L127.28-15.87 127.28 0 123.38 0 123.38-15.36Q123.38-18.92 122.23-20.56 121.08-22.19 118.47-22.19L118.47-22.19Q116.54-22.19 114.98-21.17 113.42-20.14 111.46-18.19L111.46-18.19 111.46 0ZM142.03 0.61L142.03 0.61Q139.25 0.61 136.85-0.33 134.46-1.27 132.75-2.93L132.75-2.93 134.61-5.25Q136.19-3.93 137.99-3.2 139.78-2.47 142.18-2.47L142.18-2.47Q144.69-2.47 145.96-3.67 147.23-4.88 147.23-6.54L147.23-6.54Q147.23-7.86 146.4-8.73 145.57-9.59 144.26-10.21 142.96-10.82 141.52-11.33L141.52-11.33Q139.66-12.01 137.98-12.92 136.29-13.82 135.22-15.19 134.14-16.55 134.14-18.6L134.14-18.6Q134.14-21.53 136.36-23.57 138.59-25.61 142.64-25.61L142.64-25.61Q144.96-25.61 146.92-24.82 148.89-24.02 150.33-22.83L150.33-22.83 148.52-20.51Q147.2-21.46 145.8-21.98 144.4-22.51 142.69-22.51L142.69-22.51Q140.22-22.51 139.09-21.37 137.95-20.24 137.95-18.8L137.95-18.8Q137.95-17.02 139.47-16.11 140.98-15.21 143.25-14.36L143.25-14.36Q145.23-13.67 147.01-12.78 148.79-11.89 149.91-10.47 151.04-9.06 151.04-6.74L151.04-6.74Q151.04-3.71 148.72-1.55 146.4 0.61 142.03 0.61ZM160.92 0L157.02 0 157.02-36.74 160.92-36.74 160.92-11.57 161.07-11.57 171.96-24.98 176.38-24.98 168.03-14.94 177.52 0 173.2 0 165.78-12.21 160.92-6.64 160.92 0ZM188.02 0.61L188.02 0.61Q184.89 0.61 182.8-1.21 180.7-3.03 180.7-6.42L180.7-6.42Q180.7-10.52 184.42-12.72 188.14-14.92 196.17-15.82L196.17-15.82Q196.17-17.48 195.72-18.97 195.27-20.46 194.14-21.41 193-22.36 190.9-22.36L190.9-22.36Q188.68-22.36 186.74-21.51 184.8-20.65 183.33-19.73L183.33-19.73 181.79-22.36Q183.45-23.51 185.98-24.56 188.51-25.61 191.54-25.61L191.54-25.61Q196.1-25.61 198.11-22.8 200.13-20 200.13-15.41L200.13-15.41 200.13 0 196.83 0 196.52-3.03 196.37-3.03Q194.56-1.54 192.45-0.46 190.34 0.61 188.02 0.61ZM189.09-2.56L189.09-2.56Q190.97-2.56 192.62-3.44 194.27-4.32 196.17-5.96L196.17-5.96 196.17-13.18Q191.85-12.65 189.31-11.77 186.77-10.89 185.68-9.64 184.58-8.4 184.58-6.74L184.58-6.74Q184.58-4.52 185.9-3.54 187.21-2.56 189.09-2.56ZM212.06 10.64L208.11 10.64 208.11-24.98 211.41-24.98 211.77-22.09 211.87-22.09Q213.58-23.49 215.67-24.55 217.75-25.61 219.9-25.61L219.9-25.61Q224.78-25.61 227.32-22.14 229.86-18.68 229.86-12.87L229.86-12.87Q229.86-8.62 228.35-5.6 226.84-2.59 224.36-0.99 221.88 0.61 218.97 0.61L218.97 0.61Q217.27 0.61 215.51-0.15 213.75-0.9 211.97-2.29L211.97-2.29 212.06 2.1 212.06 10.64ZM218.36-2.71L218.36-2.71Q221.56-2.71 223.67-5.43 225.79-8.15 225.79-12.82L225.79-12.82Q225.79-17.04 224.2-19.68 222.61-22.31 218.97-22.31L218.97-22.31Q217.34-22.31 215.65-21.4 213.97-20.48 212.06-18.75L212.06-18.75 212.06-5.4Q213.85-3.93 215.47-3.32 217.09-2.71 218.36-2.71ZM246.63 0.61L246.63 0.61Q243.34 0.61 240.64-0.95 237.94-2.51 236.34-5.44 234.74-8.37 234.74-12.45L234.74-12.45Q234.74-16.53 236.34-19.48 237.94-22.44 240.5-24.02 243.07-25.61 245.92-25.61L245.92-25.61Q250.64-25.61 253.22-22.46 255.81-19.31 255.81-13.89L255.81-13.89Q255.81-12.52 255.67-11.57L255.67-11.57 238.65-11.57Q238.84-7.5 241.14-5 243.43-2.51 247.1-2.51L247.1-2.51Q248.98-2.51 250.54-3.02 252.1-3.52 253.44-4.42L253.44-4.42 254.84-1.95Q253.2-0.83 251.22-0.11 249.25 0.61 246.63 0.61ZM238.6-14.43L238.6-14.43 252.32-14.43Q252.32-18.36 250.66-20.41 249-22.46 245.97-22.46L245.97-22.46Q243.26-22.46 241.13-20.36 238.99-18.26 238.6-14.43ZM269.75 0.61L269.75 0.61Q265.82 0.61 264.28-1.66 262.74-3.93 262.74-7.62L262.74-7.62 262.74-21.73 259.03-21.73 259.03-24.78 262.96-24.98 263.43-33.08 266.72-33.08 266.72-24.98 273.58-24.98 273.58-21.73 266.72-21.73 266.72-7.52Q266.72-5.2 267.58-3.91 268.43-2.61 270.63-2.61L270.63-2.61Q271.29-2.61 272.02-2.75 272.75-2.88 273.51-3.22L273.51-3.22 274.39-0.44Q273.39 0 272.19 0.31 271 0.61 269.75 0.61Z" opacity="1" transform="matrix(1,0,0,1,0,0)" fill="#354145" class="wordmark-text-0" data-fill-palette-color="primary" id="text-0"></path></svg></g></svg></g></svg></g></svg></g><g></g></svg></g></svg></g></svg></g><g mask="url(#08f7bd41-26f1-4926-9afa-623842dc5679)"><g transform="matrix(2.514871794871795, 0, 0, 2.514871794871795, 80.94420512820511, 0.9999999999999858)"><svg xmlns:x="http://ns.adobe.com/Extensibility/1.0/" xmlns:i="http://ns.adobe.com/AdobeIllustrator/10.0/" xmlns:graph="http://ns.adobe.com/Graphs/1.0/" xmlns="http://www.w3.org/2000/svg" xmlns:xlink="http://www.w3.org/1999/xlink" version="1.1" x="0" y="0" viewBox="0 0 92.9 97.5" style="enable-background:new 0 0 100 100;" xml:space="preserve" height="97.5" width="92.9" class="icon-none" data-fill-palette-color="accent" id="none"><g i:extraneous="self" transform="matrix(1,0,0,1,0,0)" fill="#7db27b" data-fill-palette-color="accent"><g fill="#7db27b" data-fill-palette-color="accent"><g fill="#7db27b" data-fill-palette-color="accent"><path d="M55.9 44.5C58.7 44.4 61.5 45.4 63.5 47.3 64.9 48.6 65.8 50.3 66.3 52 69 50 72.3 48.8 75.9 48.8 76.8 48.8 77.7 48.9 78.6 49V37.3H85C86.5 37.3 87.6 36.1 87.6 34.7V33C87.6 31.7 87 30.4 85.9 29.6L52.3 3.3C51 2.3 49.1 2.3 47.7 3.3L33.7 14.2V9.7C33.7 8.6 32.8 7.7 31.7 7.7H28C26.9 7.7 26 8.6 26 9.7V20.2L14 29.6C12.9 30.4 12.3 31.7 12.3 33V34.6C12.3 36.1 13.5 37.2 14.9 37.2H21.2V49.1C22.1 49 23 48.9 23.9 48.9 27.5 48.9 30.8 50.1 33.5 52.1 34 50.3 34.9 48.7 36.3 47.4 38.3 45.5 41.1 44.4 43.9 44.6 46.2 44.7 48.2 45.6 49.8 47 51.6 45.5 53.7 44.7 55.9 44.5" fill="#7db27b" data-fill-palette-color="accent"></path></g><g fill="#7db27b" data-fill-palette-color="accent"><path d="M24 75.3C29.6 75.3 34.2 70.8 34.2 65.1 34.1 59.6 29.6 55 24 55S13.8 59.5 13.8 65.2C13.8 70.8 18.4 75.3 24 75.3" fill="#7db27b" data-fill-palette-color="accent"></path></g><g fill="#7db27b" data-fill-palette-color="accent"><path d="M43.7 50.6C41.3 50.5 39.3 52.4 39.3 54.8V57.4C39.5 66.5 37.5 72.9 33.6 76.1L32.1 77.3C29.8 78.9 27 79.8 24 79.8 20.5 79.8 17.3 78.6 14.7 76.5 10.5 78.4 7.1 82 7.1 87.9V95.4C7.1 96.6 8 97.5 9.2 97.5H38.6C39.8 97.5 40.7 96.6 40.7 95.4V86.8C40.5 83.8 41.1 80.8 42.8 78.3 46.2 73.3 47.8 66.2 47.7 57.3V55C47.7 52.8 46 50.8 43.7 50.6" fill="#7db27b" data-fill-palette-color="accent"></path></g><g fill="#7db27b" data-fill-palette-color="accent"><path d="M76 55C70.4 55 65.8 59.5 65.8 65.2 65.8 70.8 70.3 75.4 76 75.4 81.6 75.4 86.2 70.9 86.2 65.2 86.2 59.6 81.6 55 76 55" fill="#7db27b" data-fill-palette-color="accent"></path></g><g fill="#7db27b" data-fill-palette-color="accent"><path d="M85.3 76.5C82.8 78.6 79.5 79.8 76 79.8 73 79.8 70.2 78.9 67.9 77.3L66.4 76.1C62.5 72.9 60.6 66.4 60.7 57.4V54.8C60.7 52.4 58.7 50.5 56.3 50.6 54 50.7 52.3 52.8 52.3 55V57.3C52.1 66.2 53.8 73.2 57.2 78.3 58.9 80.8 59.5 83.8 59.3 86.8V95.4C59.3 96.6 60.2 97.5 61.4 97.5H90.8C92 97.5 92.9 96.6 92.9 95.4V87.9C92.8 82 89.5 78.4 85.3 76.5" fill="#7db27b" data-fill-palette-color="accent"></path></g></g></g></svg></g></g></svg></g><defs></defs></svg><rect width="395.52" height="247.2" fill="none" stroke="none" visibility="hidden"></rect></g></svg></g></svg>